# Blender 3.4.1
# www.blender.org
mtllib SM_WoodPlank1.mtl
o Cube.002
v -4.648949 -0.214673 -5.429170
v -4.648949 0.214673 -5.429170
v -4.648949 -0.214673 -7.429170
v -4.648949 0.214673 -7.429170
v 4.648949 -0.214673 -5.429170
v 4.648949 0.214673 -5.429170
v 4.648949 -0.214673 -7.429170
v 4.648949 0.214673 -7.429170
v 4.648949 0.214673 -6.614764
v 4.648949 0.214673 -6.250776
v 4.285983 0.214673 -6.429800
v 4.648949 -0.214673 -6.250757
v 4.648949 -0.214673 -6.614728
v -4.648949 0.214673 -6.179362
v -4.648949 0.214673 -6.557695
v -4.085929 0.214673 -6.383080
v -4.648949 -0.214673 -6.557690
v -4.648949 -0.214673 -6.179371
v 4.285983 -0.212165 -6.429800
v -4.085929 -0.212165 -6.383080
vn -1.0000 -0.0000 -0.0000
vn -0.0000 -0.0000 -1.0000
vn 1.0000 -0.0000 -0.0000
vn -0.0000 -0.0000 1.0000
vn -0.3402 -0.0000 -0.9403
vn -0.2962 -0.0000 0.9551
vn 0.4424 -0.0000 -0.8968
vn 0.4540 -0.0000 0.8910
vn -0.0000 1.0000 -0.0000
vt 0.354479 0.351220
vt 0.215448 0.999865
vt 0.308315 0.351220
vt 0.261613 0.999865
vt 0.215179 0.000134
vt 0.308046 0.999865
vt 0.354479 0.000135
vt 0.261882 0.999865
vt 0.308315 0.000135
vt 0.000135 0.000134
vt 0.215448 0.000134
vt 0.354479 0.094107
vt 0.261613 0.000134
vt 0.308315 0.094107
vt 0.215179 0.999866
vt 0.308046 0.000134
vt 0.354479 0.270288
vt 0.261882 0.000134
vt 0.308315 0.270288
vt 0.000135 0.999866
vt 0.308315 0.182721
vt 0.352117 0.397654
vt 0.087701 0.999866
vt 0.308315 0.182448
vt 0.352387 0.397654
vt 0.126838 0.999866
vt 0.395903 0.397654
vt 0.308315 0.397654
vt 0.107589 0.960839
vt 0.354479 0.182446
vt 0.352386 0.351490
vt 0.354479 0.182717
vt 0.352115 0.351490
vt 0.308315 0.270558
vt 0.354748 0.064513
vt 0.134517 0.000134
vt 0.308315 0.093837
vt 0.400912 0.128163
vt 0.093838 0.000134
vt 0.354749 0.000135
vt 0.400912 0.064782
vt 0.112613 0.060672
vt 0.354479 0.093838
vt 0.354748 0.128163
vt 0.354479 0.270557
vt 0.400913 0.064513
vt 0.395903 0.351759
vt 0.308315 0.351759
vt 0.400644 0.000135
vt 0.355018 0.064782
s 0
usemtl Material.003
f 1/1/1 2/3/1 14/34/1 18/45/1
f 3/6/2 4/8/2 8/18/2 7/16/2
f 7/17/3 8/19/3 9/21/3 13/32/3
f 5/11/4 6/13/4 2/4/4 1/2/4
f 5/12/3 12/30/3 10/24/3 6/14/3
f 17/43/1 15/37/1 4/9/1 3/7/1
f 20/49/5 18/46/5 14/35/5 16/40/5
f 16/41/6 15/38/6 17/44/6 20/50/6
f 19/47/7 11/27/7 10/25/7 12/31/7
f 11/28/8 19/48/8 13/33/8 9/22/8
f 6/15/9 10/26/9 11/29/9 9/23/9 8/20/9 4/10/9 15/39/9 16/42/9 14/36/9 2/5/9
