# Blender 3.4.1
# www.blender.org
mtllib SM_WoodPlank2.mtl
o Cube.001
v -4.648949 -0.214673 -1.898617
v -4.648949 0.214673 -1.898617
v -4.648949 -0.214673 -3.898617
v -4.648949 0.214673 -3.898617
v 4.648949 -0.214673 -1.898617
v 4.648949 0.214673 -1.898617
v 4.648949 -0.214673 -3.898617
v 4.648949 0.214673 -3.898617
v 4.648949 0.214673 -2.891100
v 4.648949 0.214673 -2.527113
v 2.827594 0.214673 -2.706136
v 4.648949 -0.214673 -2.527093
v 4.648949 -0.214673 -2.891065
v -4.648949 0.214673 -3.025979
v -4.648949 0.214673 -3.404312
v -3.080143 0.214673 -3.229697
v -4.648949 -0.214673 -3.404306
v -4.648949 -0.214673 -3.025988
v 2.827594 -0.212165 -2.706136
v -3.080143 -0.212165 -3.229697
vn -1.0000 -0.0000 -0.0000
vn -0.0000 -0.0000 -1.0000
vn 1.0000 -0.0000 -0.0000
vn -0.0000 -0.0000 1.0000
vn -0.1288 -0.0000 -0.9917
vn -0.1106 -0.0000 0.9939
vn 0.0978 -0.0000 -0.9952
vn 0.1010 -0.0000 0.9949
vn -0.0000 1.0000 -0.0000
vt 0.447513 0.291384
vt 0.261956 0.999849
vt 0.401351 0.291384
vt 0.308119 0.999849
vt 0.215189 0.000151
vt 0.261654 0.999849
vt 0.401351 0.453467
vt 0.215491 0.999849
vt 0.447513 0.453467
vt 0.000151 0.000151
vt 0.261956 0.000151
vt 0.354584 0.394366
vt 0.308119 0.000151
vt 0.308421 0.394366
vt 0.215189 0.999849
vt 0.261654 0.000151
vt 0.447513 0.400017
vt 0.215491 0.000151
vt 0.401351 0.400017
vt 0.000151 0.999849
vt 0.401351 0.291691
vt 0.308421 0.196988
vt 0.108478 0.999849
vt 0.308421 0.461941
vt 0.308421 0.197291
vt 0.147614 0.999849
vt 0.308421 0.394064
vt 0.308423 0.000151
vt 0.128365 0.804019
vt 0.354584 0.461939
vt 0.354584 0.197290
vt 0.447513 0.291687
vt 0.354584 0.196988
vt 0.401351 0.170172
vt 0.401048 0.000151
vt 0.093976 0.000151
vt 0.447513 0.400320
vt 0.447513 0.169869
vt 0.053298 0.000151
vt 0.401048 0.170243
vt 0.447513 0.000151
vt 0.072073 0.168827
vt 0.401351 0.400320
vt 0.401351 0.169868
vt 0.447513 0.170171
vt 0.354886 0.000151
vt 0.354314 0.394064
vt 0.354316 0.000152
vt 0.355155 0.170243
vt 0.401620 0.000151
s 0
usemtl Material.002
f 1/1/1 2/3/1 14/34/1 18/45/1
f 3/6/2 4/8/2 8/18/2 7/16/2
f 7/17/3 8/19/3 9/21/3 13/32/3
f 5/11/4 6/13/4 2/4/4 1/2/4
f 5/12/3 12/30/3 10/24/3 6/14/3
f 17/43/1 15/37/1 4/9/1 3/7/1
f 20/49/5 18/46/5 14/35/5 16/40/5
f 16/41/6 15/38/6 17/44/6 20/50/6
f 19/47/7 11/27/7 10/25/7 12/31/7
f 11/28/8 19/48/8 13/33/8 9/22/8
f 6/15/9 10/26/9 11/29/9 9/23/9 8/20/9 4/10/9 15/39/9 16/42/9 14/36/9 2/5/9
