# Blender 3.4.1
# www.blender.org
mtllib SM_StoneNOTUnwrapped1.mtl
o Cube.007
v 12.849281 -1.000000 0.850000
v 12.849281 -0.850000 1.000000
v 12.699282 -0.850000 0.850000
v 12.849281 0.850000 1.000000
v 12.849281 1.000000 0.850000
v 12.699282 0.850000 0.850000
v 12.849281 -1.000000 -0.850000
v 12.699282 -0.850000 -0.850000
v 12.849281 -0.850000 -1.000000
v 12.849281 1.000000 -0.850000
v 12.849281 0.850000 -1.000000
v 12.699282 0.850000 -0.850000
v 14.549282 -1.000000 0.850000
v 14.699282 -0.850000 0.850000
v 14.549282 -0.850000 1.000000
v 14.549282 1.000000 0.850000
v 14.549282 0.850000 1.000000
v 14.699282 0.850000 0.850000
v 14.549282 -1.000000 -0.850000
v 14.549282 -0.850000 -1.000000
v 14.699282 -0.850000 -0.850000
v 14.699282 0.850000 0.239051
v 14.699282 0.281960 -0.365074
v 14.699282 0.368380 -0.850000
v 13.857683 1.000000 -0.491894
v 13.934916 1.000000 -0.850000
v 14.549282 1.000000 0.239869
v 14.148790 0.850000 -1.000000
v 14.549282 0.519061 -1.000000
vn -0.0000 -0.0000 1.0000
vn 1.0000 -0.0000 -0.0000
vn -0.0000 1.0000 -0.0000
vn -1.0000 -0.0000 -0.0000
vn -0.0000 -0.0000 -1.0000
vn -0.5774 -0.5774 0.5774
vn -0.5774 0.5774 0.5774
vn -0.5774 -0.5774 -0.5774
vn -0.5774 0.5774 -0.5774
vn 0.5774 -0.5774 0.5774
vn 0.5774 0.5774 0.5774
vn 0.5774 -0.5774 -0.5774
vn -0.7071 -0.7071 -0.0000
vn -0.7071 -0.0000 0.7071
vn -0.7071 0.7071 -0.0000
vn -0.7071 -0.0000 -0.7071
vn -0.0000 -0.7071 -0.7071
vn -0.0000 0.7071 -0.7071
vn 0.7071 -0.0000 -0.7071
vn 0.7071 -0.7071 -0.0000
vn 0.7071 0.7071 -0.0000
vn 0.7071 -0.0000 0.7071
vn -0.0000 -0.7071 0.7071
vn -0.0000 0.7071 0.7071
vn -0.0000 -1.0000 -0.0000
vn 0.6311 0.7637 0.1361
vn 0.5869 0.5899 -0.5546
vt 0.143750 0.731250
vt 0.393750 0.981250
vt 0.393750 0.000000
vt 0.143750 0.750000
vt 0.125000 0.731250
vt 0.393750 0.018750
vt 0.606250 0.000000
vt 0.606250 0.981250
vt 0.856250 0.731250
vt 0.625000 0.018750
vt 0.625000 0.981250
vt 0.606250 0.018750
vt 0.143750 0.518750
vt 0.125000 0.518750
vt 0.393750 0.231250
vt 0.393750 0.268750
vt 0.143750 0.500000
vt 0.856250 0.518750
vt 0.625000 0.231250
vt 0.625000 0.268750
vt 0.606250 0.250000
vt 0.606250 0.268750
vt 0.606250 0.231250
vt 0.356250 0.731250
vt 0.375000 0.731250
vt 0.393750 0.731250
vt 0.393750 0.768750
vt 0.356250 0.750000
vt 0.643750 0.731250
vt 0.625000 0.768750
vt 0.606250 0.768750
vt 0.606250 0.750000
vt 0.606250 0.731250
vt 0.356250 0.518750
vt 0.356250 0.500000
vt 0.393750 0.481250
vt 0.375000 0.518750
vt 0.393750 0.518750
vt 0.606250 0.654881
vt 0.829845 0.238003
vt 0.535245 0.579366
vt 0.795901 0.196053
vt 0.546047 0.518750
vt 0.765245 0.186691
vt 0.730200 0.563513
vt 0.759669 0.258808
vt 0.720546 0.518750
vt 0.625000 0.404454
vt 0.739620 0.245911
vt 0.643750 0.654984
vt 0.824703 0.250815
vt 0.606250 0.431189
vt 0.737307 0.226445
vt 0.564883 0.481250
vt 0.750733 0.195417
s 0
f 15/27/1 17/31/1 4/8/1 2/2/1
f 22/39/2 18/33/2 14/26/2 21/38/2 24/43/2 23/41/2
f 10/18/3 5/9/3 16/29/3 27/50/3 25/45/3 26/47/3
f 3/6/4 6/12/4 12/23/4 8/15/4
f 20/36/5 9/16/5 11/22/5 28/52/5 29/54/5
f 1/1/6 2/4/6 3/5/6
f 4/7/7 5/10/7 6/12/7
f 7/13/8 8/14/8 9/17/8
f 10/19/9 11/21/9 12/23/9
f 13/24/10 14/25/10 15/28/10
f 16/30/11 17/31/11 18/32/11
f 19/34/12 20/35/12 21/37/12
f 7/13/13 1/1/13 3/5/13 8/14/13
f 2/3/14 4/7/14 6/12/14 3/6/14
f 5/10/15 10/19/15 12/23/15 6/12/15
f 11/22/16 9/16/16 8/15/16 12/23/16
f 19/34/17 7/13/17 9/17/17 20/35/17
f 28/52/18 11/22/18 10/20/18 26/48/18
f 21/38/19 20/36/19 29/54/19 24/43/19
f 13/24/20 19/34/20 21/38/20 14/26/20
f 27/50/21 16/29/21 18/33/21 22/39/21
f 17/31/22 15/27/22 14/26/22 18/33/22
f 1/1/23 13/24/23 15/28/23 2/4/23
f 16/30/24 5/11/24 4/8/24 17/31/24
f 7/13/25 19/34/25 13/24/25 1/1/25
f 29/55/26 28/53/26 26/49/26 25/46/26 23/42/26 24/44/26
f 22/40/27 23/42/27 25/46/27 27/51/27
