# Blender 3.4.1
# www.blender.org
mtllib SM_StoneNOTUnwrapped2.mtl
o Cube.006
v 10.987786 -1.000000 0.850000
v 11.137786 -0.850000 0.850000
v 10.987786 -0.850000 1.000000
v 9.693805 0.092767 -0.534009
v 11.137786 0.850000 0.850000
v 10.987786 1.000000 0.850000
v 10.987786 0.850000 1.000000
v 9.287786 -1.000000 0.850000
v 9.287786 -0.850000 1.000000
v 9.137786 -0.850000 0.850000
v 9.287786 1.000000 0.850000
v 9.137786 0.850000 0.850000
v 9.287786 0.850000 1.000000
v 10.987786 -1.000000 -0.850000
v 10.987786 -0.850000 -1.000000
v 11.137786 -0.850000 -0.850000
v 10.987786 1.000000 -0.850000
v 11.137786 0.850000 -0.850000
v 10.987786 0.850000 -1.000000
v 9.287786 -1.000000 -0.850000
v 9.137786 -0.850000 -0.850000
v 9.287786 -0.850000 -1.000000
v 10.679439 0.850000 -1.000000
v 9.655209 -0.255254 -1.000000
v 9.287786 -0.200891 -1.000000
v 9.570302 -0.299862 -1.000000
v 9.287786 1.000000 0.505702
v 10.544254 1.000000 0.108807
v 10.781350 1.000000 -0.850000
v 9.137786 0.850000 0.398268
v 9.137786 0.163962 -0.309798
v 9.137786 -0.064941 -0.850000
vn 1.0000 -0.0000 -0.0000
vn -0.0000 -0.0000 -1.0000
vn -0.0000 1.0000 -0.0000
vn -0.0000 -0.0000 1.0000
vn -1.0000 -0.0000 -0.0000
vn 0.5774 -0.5774 0.5774
vn 0.5774 0.5774 0.5774
vn -0.5774 -0.5774 0.5774
vn -0.5774 0.5774 0.5774
vn 0.5774 -0.5774 -0.5774
vn 0.5774 0.5774 -0.5774
vn -0.5774 -0.5774 -0.5774
vn -0.0000 -0.7071 0.7071
vn 0.7071 -0.0000 0.7071
vn -0.0000 0.7071 0.7071
vn -0.7071 -0.0000 0.7071
vn -0.7071 -0.7071 -0.0000
vn -0.7071 0.7071 -0.0000
vn -0.7071 -0.0000 -0.7071
vn -0.0000 -0.7071 -0.7071
vn -0.0000 0.7071 -0.7071
vn 0.7071 -0.0000 -0.7071
vn 0.7071 -0.7071 -0.0000
vn 0.7071 0.7071 -0.0000
vn -0.0000 -1.0000 -0.0000
vn -0.3948 0.7515 -0.5285
vn 0.2479 0.7075 -0.6618
vn -0.6681 0.6988 -0.2554
vn 0.0132 0.8852 -0.4651
vn -0.2088 0.6955 -0.6875
vt 0.143750 0.731250
vt 0.393750 0.981250
vt 0.393750 0.000000
vt 0.143750 0.750000
vt 0.125000 0.731250
vt 0.393750 0.018750
vt 0.818182 0.157461
vt 0.606250 0.000000
vt 0.606250 0.981250
vt 0.856250 0.731250
vt 0.625000 0.018750
vt 0.625000 0.981250
vt 0.606250 0.018750
vt 0.143750 0.518750
vt 0.125000 0.518750
vt 0.393750 0.231250
vt 0.393750 0.268750
vt 0.143750 0.500000
vt 0.856250 0.518750
vt 0.625000 0.231250
vt 0.625000 0.268750
vt 0.606250 0.250000
vt 0.606250 0.268750
vt 0.606250 0.231250
vt 0.356250 0.731250
vt 0.375000 0.731250
vt 0.393750 0.731250
vt 0.393750 0.768750
vt 0.356250 0.750000
vt 0.643750 0.731250
vt 0.625000 0.768750
vt 0.606250 0.768750
vt 0.606250 0.750000
vt 0.606250 0.731250
vt 0.356250 0.518750
vt 0.356250 0.500000
vt 0.393750 0.481250
vt 0.375000 0.518750
vt 0.393750 0.518750
vt 0.606250 0.692707
vt 0.913194 0.201118
vt 0.468093 0.564678
vt 0.825389 0.157461
vt 0.471356 0.526069
vt 0.474889 0.518750
vt 0.801438 0.157461
vt 0.797294 0.158315
vt 0.462517 0.554065
vt 0.819954 0.154392
vt 0.816410 0.154392
vt 0.813213 0.518750
vt 0.625000 0.311787
vt 0.797761 0.285294
vt 0.763601 0.675809
vt 0.881602 0.267308
vt 0.643750 0.705446
vt 0.919224 0.215196
vt 0.606250 0.325217
vt 0.787846 0.273413
vt 0.520495 0.413725
vt 0.788278 0.209257
vt 0.491882 0.481250
vt 0.787026 0.171098
s 0
f 16/28/1 18/32/1 5/9/1 2/2/1
f 23/40/2 19/34/2 15/27/2 22/39/2 25/44/2 26/48/2 24/42/2
f 27/51/3 11/19/3 6/10/3 17/30/3 29/56/3 28/54/3
f 3/6/4 7/13/4 13/24/4 9/16/4
f 21/37/5 10/17/5 12/23/5 30/58/5 31/60/5 32/62/5
f 1/1/6 2/4/6 3/5/6
f 5/8/7 6/11/7 7/13/7
f 8/14/8 9/15/8 10/18/8
f 13/24/9 11/20/9 12/22/9
f 14/25/10 15/26/10 16/29/10
f 17/31/11 18/32/11 19/33/11
f 20/35/12 21/36/12 22/38/12
f 8/14/13 1/1/13 3/5/13 9/15/13
f 2/3/14 5/8/14 7/13/14 3/6/14
f 6/11/15 11/20/15 13/24/15 7/13/15
f 12/23/16 10/17/16 9/16/16 13/24/16
f 20/35/17 8/14/17 10/18/17 21/36/17
f 30/58/18 12/23/18 11/21/18 27/52/18
f 22/39/19 21/37/19 32/62/19 25/45/19
f 14/25/20 20/35/20 22/39/20 15/27/20
f 29/56/21 17/30/21 19/34/21 23/40/21
f 18/32/22 16/28/22 15/27/22 19/34/22
f 1/1/23 14/25/23 16/29/23 2/4/23
f 17/31/24 6/12/24 5/9/24 18/32/24
f 8/14/25 20/35/25 14/25/25 1/1/25
f 4/7/26 24/43/26 26/49/26
f 4/7/27 26/50/27 25/46/27
f 23/41/28 24/43/28 4/7/28 28/55/28 29/57/28
f 32/63/29 31/61/29 4/7/29 25/47/29
f 27/53/30 28/55/30 4/7/30 31/61/30 30/59/30
