# Blender 3.4.1
# www.blender.org
mtllib SM_StoneNOTUnwrapped3.mtl
o Cube.005
v 7.699681 -0.850000 1.000000
v 7.699681 -1.000000 0.850000
v 7.849682 -0.850000 0.850000
v 5.999681 -0.850000 1.000000
v 5.849681 -0.850000 0.850000
v 5.999681 -1.000000 0.850000
v 5.849681 0.496267 0.850000
v 5.849681 -0.141708 0.654745
v 5.849681 -0.850000 -0.109579
v 6.997036 -0.105483 1.000000
v 7.699681 0.665041 1.000000
v 5.999681 0.511514 1.000000
v 6.126587 0.109763 1.000000
v 7.849681 0.544026 0.850000
v 7.849681 -0.850000 0.117602
v 7.584611 -1.000000 0.191511
v 7.699681 -1.000000 0.125215
v 5.999681 -1.000000 -0.231418
vn -1.0000 -0.0000 -0.0000
vn -0.0000 -0.0000 1.0000
vn 1.0000 -0.0000 -0.0000
vn -0.0000 -1.0000 -0.0000
vn 0.5774 -0.5774 0.5774
vn -0.5774 -0.5774 0.5774
vn 0.7071 -0.0000 0.7071
vn 0.7071 -0.7071 -0.0000
vn -0.0000 -0.7071 0.7071
vn -0.7071 -0.7071 -0.0000
vn -0.7071 -0.0000 0.7071
vn 0.6796 0.2147 -0.7014
vn 0.1785 0.7217 -0.6688
vn -0.4543 0.4143 -0.7886
vt 0.856250 0.518750
vt 0.625000 0.231250
vt 0.625000 0.268750
vt 0.606250 0.250000
vt 0.606250 0.268750
vt 0.606250 0.231250
vt 0.625000 0.481250
vt 0.643750 0.518750
vt 0.606250 0.500000
vt 0.606250 0.518750
vt 0.606250 0.481250
vt 0.606250 0.687033
vt 0.365066 0.248051
vt 0.581843 0.607287
vt 0.407514 0.238924
vt 0.486303 0.518750
vt 0.468234 0.208733
vt 0.768419 0.611815
vt 0.425106 0.314921
vt 0.856250 0.708130
vt 0.625000 0.041870
vt 0.411696 0.381444
vt 0.643750 0.688939
vt 0.364143 0.261861
vt 0.659613 0.638721
vt 0.390951 0.267611
vt 0.606250 0.056997
vt 0.427108 0.385324
vt 0.514700 0.231250
vt 0.516337 0.334931
vt 0.523939 0.283134
vt 0.512391 0.314921
vt 0.515652 0.268750
vt 0.518272 0.321254
vt 0.471073 0.481250
vt 0.483799 0.212073
s 0
f 9/16/1 5/10/1 7/12/1 8/14/1
f 12/23/2 4/8/2 1/1/2 11/20/2 10/18/2 13/25/2
f 14/27/3 3/6/3 15/29/3
f 2/5/4 6/11/4 18/35/4 16/31/4 17/33/4
f 3/6/5 1/2/5 2/4/5
f 6/11/6 4/7/6 5/9/6
f 11/21/7 1/2/7 3/6/7 14/27/7
f 15/29/8 3/6/8 2/5/8 17/33/8
f 1/3/9 4/7/9 6/11/9 2/5/9
f 18/35/10 6/11/10 5/10/10 9/16/10
f 7/12/11 5/10/11 4/8/11 12/23/11
f 12/24/12 13/26/12 8/15/12 7/13/12
f 9/17/13 8/15/13 13/26/13 10/19/13 16/32/13 18/36/13
f 16/32/14 10/19/14 11/22/14 14/28/14 15/30/14 17/34/14
