# Blender 3.4.1
# www.blender.org
mtllib SM_StoneNOTUnwrapped4.mtl
o Cube.004
v 2.562924 -1.000000 0.850000
v 2.562924 -0.850000 1.000000
v 2.412924 -0.850000 0.850000
v 2.562924 0.850000 1.000000
v 2.562924 1.000000 0.850000
v 2.412924 0.850000 0.850000
v 2.562924 -1.000000 -0.850000
v 2.412924 -0.850000 -0.850000
v 3.182953 -0.263418 -0.151524
v 2.562924 -0.850000 -1.000000
v 2.562924 1.000000 -0.850000
v 2.562924 0.850000 -1.000000
v 2.412924 0.850000 -0.850000
v 4.262924 -1.000000 0.850000
v 4.412924 -0.850000 0.850000
v 4.262924 -0.850000 1.000000
v 4.262924 1.000000 0.850000
v 4.262924 0.850000 1.000000
v 4.412924 0.850000 0.850000
v 4.262924 -1.000000 -0.850000
v 4.412924 0.850000 0.098050
v 4.412924 -0.464084 -0.245762
v 4.412924 -0.850000 -0.843816
v 2.798841 1.000000 -0.850000
v 3.709564 1.000000 0.008994
v 4.262924 1.000000 0.109934
v 2.718038 -0.223026 -1.000000
v 2.612148 0.850000 -1.000000
v 3.226595 -0.694702 -1.000000
v 3.946033 -0.850000 -1.000000
v 4.409642 -0.853282 -0.850000
v 4.262924 -0.891576 -0.958424
vn -0.0000 -0.0000 1.0000
vn 1.0000 -0.0000 -0.0000
vn -0.0000 1.0000 -0.0000
vn -1.0000 -0.0000 -0.0000
vn -0.0000 -0.0000 -1.0000
vn -0.5774 -0.5774 0.5774
vn -0.5774 0.5774 0.5774
vn -0.5774 -0.5774 -0.5774
vn -0.5774 0.5774 -0.5774
vn 0.5774 -0.5774 0.5774
vn 0.5774 0.5774 0.5774
vn 0.5774 -0.5774 -0.5774
vn -0.7071 -0.7071 -0.0000
vn -0.7071 -0.0000 0.7071
vn -0.7071 0.7071 -0.0000
vn -0.7071 -0.0000 -0.7071
vn -0.0000 -0.7071 -0.7071
vn -0.0000 0.7071 -0.7071
vn 0.7071 -0.7071 -0.0000
vn 0.7071 0.7071 -0.0000
vn 0.7071 -0.0000 0.7071
vn -0.0000 -0.7071 0.7071
vn -0.0000 0.7071 0.7071
vn -0.0000 -1.0000 -0.0000
vn 0.1428 0.8612 -0.4879
vn 0.0357 0.1879 -0.9815
vn 0.6443 0.6947 -0.3200
vn 0.6787 -0.1864 -0.7104
vn 0.8754 0.0864 -0.4756
vt 0.143750 0.731250
vt 0.393750 0.981250
vt 0.393750 0.000000
vt 0.143750 0.750000
vt 0.125000 0.731250
vt 0.393750 0.018750
vt 0.606250 0.000000
vt 0.606250 0.981250
vt 0.856250 0.731250
vt 0.625000 0.018750
vt 0.625000 0.981250
vt 0.606250 0.018750
vt 0.143750 0.518750
vt 0.125000 0.518750
vt 0.393750 0.231250
vt 0.000000 0.314921
vt 0.909091 0.314921
vt 0.393750 0.268750
vt 0.143750 0.500000
vt 0.856250 0.518750
vt 0.625000 0.231250
vt 0.625000 0.268750
vt 0.606250 0.250000
vt 0.606250 0.268750
vt 0.606250 0.231250
vt 0.356250 0.731250
vt 0.375000 0.731250
vt 0.393750 0.731250
vt 0.393750 0.768750
vt 0.356250 0.750000
vt 0.643750 0.731250
vt 0.625000 0.768750
vt 0.606250 0.768750
vt 0.606250 0.750000
vt 0.606250 0.731250
vt 0.356250 0.518750
vt 0.606250 0.637256
vt 0.150779 0.263809
vt 0.441990 0.594280
vt 0.972841 0.204501
vt 0.063751 0.204501
vt 0.393750 0.519523
vt 0.923428 0.179932
vt 0.826760 0.518750
vt 0.625000 0.298240
vt 0.068050 0.391692
vt 0.712920 0.626124
vt 0.127447 0.314921
vt 0.643750 0.638742
vt 0.153619 0.280036
vt 0.472122 0.288139
vt 0.868911 0.314921
vt 0.606250 0.274903
vt 0.048613 0.399121
vt 0.860478 0.399121
vt 0.413162 0.351709
vt 0.878545 0.262013
vt 0.393750 0.441639
vt 0.316639 0.500000
vt 0.897938 0.208345
vt 0.374590 0.518750
vt 0.392930 0.518750
vt 0.922828 0.179923
vt 0.356250 0.505197
vt 0.909915 0.186414
s 0
f 16/29/1 18/33/1 4/8/1 2/2/1
f 21/37/2 19/35/2 15/28/2 23/42/2 22/39/2
f 11/20/3 5/9/3 17/31/3 26/49/3 25/47/3 24/44/3
f 3/6/4 6/12/4 13/25/4 8/15/4
f 29/56/5 30/58/5 10/18/5 12/24/5 28/53/5 27/51/5
f 1/1/6 2/4/6 3/5/6
f 4/7/7 5/10/7 6/12/7
f 8/14/8 10/19/8 7/13/8
f 13/25/9 11/21/9 12/23/9
f 14/26/10 15/27/10 16/30/10
f 17/32/11 18/33/11 19/34/11
f 32/64/12 31/61/12 20/36/12
f 7/13/13 1/1/13 3/5/13 8/14/13
f 2/3/14 4/7/14 6/12/14 3/6/14
f 5/10/15 11/21/15 13/25/15 6/12/15
f 12/24/16 10/18/16 8/15/16 13/25/16
f 20/36/17 7/13/17 10/19/17 30/59/17 32/64/17
f 28/53/18 12/24/18 11/22/18 24/45/18
f 15/28/19 14/26/19 20/36/19 31/62/19 23/42/19
f 26/49/20 17/31/20 19/35/20 21/37/20
f 18/33/21 16/29/21 15/28/21 19/35/21
f 1/1/22 14/26/22 16/30/22 2/4/22
f 17/32/23 5/11/23 4/8/23 18/33/23
f 7/13/24 20/36/24 14/26/24 1/1/24
f 31/63/25 32/65/25 30/60/25 29/57/25 9/17/25 22/40/25 23/43/25
f 21/38/26 22/41/26 9/16/26 25/48/26 26/50/26
f 27/52/27 9/17/27 29/57/27
f 25/48/28 9/16/28 28/54/28 24/46/28
f 28/55/29 9/17/29 27/52/29
